<?xml version="1.0" encoding="UTF-8"?>
<svg xmlns="http://www.w3.org/2000/svg" xmlns:xlink="http://www.w3.org/1999/xlink" width="24px" height="24px" viewBox="0 0 24 24" version="1.1">
<g id="surface1">
<path style=" stroke:none;fill-rule:nonzero;fill:rgb(0%,0%,0%);fill-opacity:1;" d="M 16.492188 13.453125 C 16.367188 13.4375 16.242188 13.421875 16.117188 13.402344 C 16.246094 13.417969 16.367188 13.4375 16.492188 13.453125 Z M 12 10.917969 C 11.019531 9.015625 8.359375 5.472656 5.882812 3.722656 C 3.511719 2.046875 2.605469 2.335938 2.011719 2.605469 C 1.324219 2.917969 1.199219 3.972656 1.199219 4.589844 C 1.199219 5.207031 1.542969 9.675781 1.761719 10.421875 C 2.492188 12.886719 5.105469 13.71875 7.507812 13.449219 C 7.632812 13.429688 7.753906 13.414062 7.882812 13.394531 C 7.757812 13.414062 7.636719 13.433594 7.507812 13.449219 C 3.984375 13.972656 0.859375 15.253906 4.960938 19.820312 C 9.472656 24.492188 11.140625 18.816406 12 15.941406 C 12.859375 18.816406 13.84375 24.285156 18.960938 19.820312 C 22.800781 15.941406 20.015625 13.96875 16.492188 13.449219 C 16.367188 13.433594 16.242188 13.417969 16.117188 13.398438 C 16.246094 13.414062 16.367188 13.433594 16.492188 13.449219 C 18.894531 13.714844 21.503906 12.882812 22.238281 10.421875 C 22.457031 9.675781 22.800781 5.210938 22.800781 4.589844 C 22.800781 3.96875 22.675781 2.914062 21.988281 2.605469 C 21.398438 2.339844 20.488281 2.046875 18.121094 3.722656 C 15.640625 5.472656 12.980469 9.015625 12 10.917969 Z M 12 10.917969 "/>
</g>
</svg>
