<svg xmlns="http://www.w3.org/2000/svg" width="24" height="24" viewBox="0 0 24 24" fill="none" stroke="white" stroke-width="2" stroke-linecap="round" stroke-linejoin="round" class="icon icon-tabler icon-tabler-brand-bluesky">
	<path stroke="none" d="M0 0h24v24H0z" fill="none"/>
	<path d="M16.492 13.453c-.125-.016-.25-.031-.375-.051.129.016.25.035.375.051zm-4.492-2.535c-.98-1.903-3.64-5.446-6.117-7.196-2.371-1.676-3.277-1.387-3.871-.117-.687.312-.812 1.367-.812 1.984 0 .617.344 5.086.563 5.832.731 2.465 3.344 3.297 5.746 3.028.125-.019.246-.035.375-.055-.125.02-.246.039-.375.055-3.523.523-6.648 1.804-2.547 6.371 4.512 4.672 6.18-1.004 7.04-3.879.859 2.875 1.843 8.344 6.961 3.879 3.84-3.879 1.055-5.852-2.468-6.371-.125-.016-.25-.031-.375-.051.129.016.25.035.375.051 2.402.265 5.011-.567 5.746-3.028.219-.746.563-5.211.563-5.832 0-.621-.125-1.676-.812-1.984-.59-.266-1.5-.559-3.867 1.117-2.48 1.75-5.14 5.293-6.12 7.196z"/>
</svg>
